<svg id="coffee" xmlns="http://www.w3.org/2000/svg" width="323.746" height="503.158" viewBox="0 0 323.746 503.158">
  <g id="Paper-cup" transform="translate(-91.998 -2.917)">
    <g id="_4" data-name="4" transform="translate(91 2)">
      <path id="Fill-1" d="M266,493.834H59.743L30.961,115.1H294.782Z" fill="#fefefe" fill-rule="evenodd"/>
      <path id="Fill-4" d="M246.9,115.1,218.121,493.837H266L294.781,115.1Z" fill="#010202" fill-rule="evenodd" opacity="0.15"/>
      <g id="Group-25" transform="translate(0 0.902)">
        <path id="Fill-2" d="M69.256,482.693h187.23l27.222-358.256H42.034L69.256,482.693ZM266,503.173H59.742A10.257,10.257,0,0,1,49.51,493.7L20.728,114.975a10.269,10.269,0,0,1,10.232-11.018h263.82a10.269,10.269,0,0,1,10.232,11.018L276.232,493.7A10.257,10.257,0,0,1,266,503.173Z" fill="#2e2e30" fill-rule="evenodd"/>
        <path id="Fill-6" d="M288.307,413.769H37.434L11.258,158.616H314.482Z" fill="#b4814a" fill-rule="evenodd"/>
        <path id="Fill-11" d="M266.607,158.614,240.431,413.768h47.878l26.175-255.154Z" fill="#010202" fill-rule="evenodd" opacity="0.15"/>
        <g id="Group-10" transform="translate(0 148.187)">
          <path id="Fill-8" d="M46.7,255.343H279.044L303.12,20.67H22.617ZM288.3,275.823H37.438a10.252,10.252,0,0,1-10.212-9.2L1.051,11.467A10.241,10.241,0,0,1,11.256.19H314.48a10.24,10.24,0,0,1,10.212,11.278L298.51,266.628a10.247,10.247,0,0,1-10.205,9.2Z" fill="#2e2e30" fill-rule="evenodd"/>
        </g>
        <path id="Fill-13" d="M11.636,114.77H314.114V63.645H11.636Z" fill="#513a2b" fill-rule="evenodd"/>
        <path id="Fill-16" d="M266.237,114.77h48.247V63.645H266.237Z" fill="#010202" fill-rule="evenodd" opacity="0.15"/>
        <path id="Fill-15" d="M21.9,104.523h281.96V73.885H21.9ZM314.108,125H11.636a10.244,10.244,0,0,1-10.26-10.24V63.645a10.249,10.249,0,0,1,10.26-10.24H314.108a10.253,10.253,0,0,1,10.259,10.24v51.118A10.248,10.248,0,0,1,314.108,125Z" fill="#2e2e30" fill-rule="evenodd"/>
        <path id="Fill-17" d="M276.459,10.257H49.285L31.454,63.648H294.29Z" fill="#513a2b" fill-rule="evenodd"/>
        <path id="Fill-19" d="M276.459,10.256H228.581l17.831,53.391H294.29Z" fill="#010202" fill-rule="evenodd" opacity="0.15"/>
        <path id="Fill-18" d="M45.684,53.407H280.06l-11-32.911H56.676Zm248.61,20.48H31.451A10.244,10.244,0,0,1,21.718,60.4L39.556,7.019a10.25,10.25,0,0,1,9.726-7H276.456a10.253,10.253,0,0,1,9.733,7L304.027,60.4a10.252,10.252,0,0,1-9.733,13.483Z" fill="#2e2e30" fill-rule="evenodd"/>
        <path id="Fill-20" d="M231.268,280.246a68.4,68.4,0,1,1-68.4-68.266,68.33,68.33,0,0,1,68.4,68.266" fill="#513a2b" fill-rule="evenodd"/>
        <path id="Fill-21" d="M162.874,222.22a58.027,58.027,0,1,0,58.138,58.026,58.147,58.147,0,0,0-58.138-58.026m0,136.533a78.507,78.507,0,1,1,78.657-78.507,78.672,78.672,0,0,1-78.657,78.507" fill="#2e2e30" fill-rule="evenodd"/>
        <path id="Fill-22" d="M231.268,280.246a68.4,68.4,0,1,1-68.4-68.266,68.33,68.33,0,0,1,68.4,68.266" fill="#513a2b" fill-rule="evenodd"/>
        <path id="Fill-24" d="M195.586,220.287A68.368,68.368,0,0,1,102.8,312.9a68.362,68.362,0,1,0,92.787-92.611" fill="#010202" fill-rule="evenodd" opacity="0.15"/>
        <path id="Fill-23" d="M162.874,222.22a58.027,58.027,0,1,0,58.138,58.026,58.147,58.147,0,0,0-58.138-58.026m0,136.533a78.507,78.507,0,1,1,78.657-78.507,78.672,78.672,0,0,1-78.657,78.507" fill="#2e2e30" fill-rule="evenodd"/>
      </g>
    </g>
  </g>
</svg>
