<svg xmlns="http://www.w3.org/2000/svg" xmlns:xlink="http://www.w3.org/1999/xlink" width="145.004" height="115.162" viewBox="0 0 145.004 115.162">
  <defs>
    <linearGradient id="linear-gradient" x1="0.844" y1="1.137" x2="0.387" y2="0.307" gradientUnits="objectBoundingBox">
      <stop offset="0" stop-color="#c6d1ff"/>
      <stop offset="0.583" stop-color="#e6d5f4"/>
      <stop offset="0.997" stop-color="#ffd9ec"/>
    </linearGradient>
  </defs>
  <g id="message" transform="translate(0 -52.685)">
    <g id="Group_493" data-name="Group 493" transform="translate(0 59.888)">
      <path id="Path_1016" data-name="Path 1016" d="M142.135,99.491C135.8,83.379,116.3,73.718,99.78,80.111c-18.857,7.3-12.6,37.291-29.732,43.356-9.252,3.276-22.93-8.962-32.277-10.838-17.225-3.458-32.819,8.7-36.659,25.527-3.917,17.171,2.366,40.105,21.231,44.766,22.473,5.551,34.179-14.65,53.031-20.451,19.346-5.953,40.857,8.106,56.873-9,11.833-12.637,16.159-38.027,9.889-53.981Z" transform="translate(0 -78.118)" fill="url(#linear-gradient)"/>
    </g>
    <g id="Group_504" data-name="Group 504" transform="translate(15.523 52.685)">
      <path id="Path_1017" data-name="Path 1017" d="M177.921,127.33a20.255,20.255,0,0,0-39.2-7.156H65.477a5.664,5.664,0,0,0-5.664,5.664v62.706a5.664,5.664,0,0,0,5.664,5.664h99.8a5.664,5.664,0,0,0,5.664-5.664v-45.92A20.2,20.2,0,0,0,177.921,127.33Z" transform="translate(-58.397 -91.672)" fill="#2626bc" opacity="0.1"/>
      <g id="Group_503" data-name="Group 503" transform="translate(0 6.908)">
        <g id="Group_495" data-name="Group 495" transform="translate(1.415 14.515)">
          <path id="Path_1018" data-name="Path 1018" d="M165.273,202.36h-99.8a5.664,5.664,0,0,1-5.664-5.664V133.99a5.664,5.664,0,0,1,5.664-5.664h99.8a5.664,5.664,0,0,1,5.664,5.664V196.7A5.664,5.664,0,0,1,165.273,202.36Z" transform="translate(-59.811 -128.326)" fill="#9fb0fe"/>
          <g id="Group_494" data-name="Group 494" transform="translate(0 0.001)">
            <path id="Path_1019" data-name="Path 1019" d="M367.336,134v23.931a20.254,20.254,0,0,1-27.619-29.6h21.954A5.664,5.664,0,0,1,367.336,134Z" transform="translate(-256.21 -128.331)" fill="#8399fe"/>
            <path id="Path_1020" data-name="Path 1020" d="M170.936,134v7.14L120.55,179.841a8.5,8.5,0,0,1-10.354,0L59.81,141.135V134a5.664,5.664,0,0,1,5.664-5.664h99.8A5.664,5.664,0,0,1,170.936,134Z" transform="translate(-59.81 -128.331)" fill="#8399fe"/>
            <path id="Path_1021" data-name="Path 1021" d="M117.1,222.227l53.837,41.356a5.664,5.664,0,0,1-5.664,5.664h-99.8a5.664,5.664,0,0,1-5.664-5.664l53.837-41.356A2.832,2.832,0,0,1,117.1,222.227Z" transform="translate(-59.811 -195.215)" fill="#8399fe"/>
          </g>
          <path id="Path_1022" data-name="Path 1022" d="M226.3,235.8l-14.22,10.923a8.5,8.5,0,0,1-10.354,0L187.51,235.8l17.672-13.574a2.83,2.83,0,0,1,3.449,0Z" transform="translate(-151.344 -195.213)" fill="#6583fe"/>
          <path id="Path_1023" data-name="Path 1023" d="M113.649,175.346,59.812,133.99a5.664,5.664,0,0,1,5.664-5.664h99.8a5.664,5.664,0,0,1,5.664,5.664L117.1,175.346A2.833,2.833,0,0,1,113.649,175.346Z" transform="translate(-59.811 -128.326)" fill="#b7c5ff"/>
        </g>
        <g id="Group_501" data-name="Group 501" transform="translate(43.678 71.906)">
          <path id="Path_1024" data-name="Path 1024" d="M344.331,340.077h-9.1a1.416,1.416,0,0,1-1.416-1.416v-6.274a1.416,1.416,0,0,1,1.416-1.416h9.1a1.416,1.416,0,0,1,1.416,1.416v6.274A1.416,1.416,0,0,1,344.331,340.077Z" transform="translate(-298.476 -330.971)" fill="#02ffb3"/>
          <g id="Group_500" data-name="Group 500" transform="translate(0 0.502)">
            <g id="Group_497" data-name="Group 497" transform="translate(19.825)">
              <g id="Group_496" data-name="Group 496">
                <path id="Path_1025" data-name="Path 1025" d="M288.337,335.575h-7.883a1.416,1.416,0,0,1,0-2.832h7.883a1.416,1.416,0,0,1,0,2.832Z" transform="translate(-279.038 -332.743)" fill="#fff"/>
              </g>
            </g>
            <g id="Group_499" data-name="Group 499" transform="translate(0 5.772)">
              <g id="Group_498" data-name="Group 498">
                <path id="Path_1026" data-name="Path 1026" d="M238.161,355.957H210.454a1.416,1.416,0,0,1,0-2.832h27.707a1.416,1.416,0,0,1,0,2.832Z" transform="translate(-209.038 -353.125)" fill="#fff"/>
              </g>
            </g>
          </g>
        </g>
        <g id="Group_502" data-name="Group 502">
          <circle id="Ellipse_122" data-name="Ellipse 122" cx="20.254" cy="20.254" r="20.254" transform="translate(79.016 1.416)" fill="#ff5ba8"/>
          <path id="Path_1027" data-name="Path 1027" d="M154.083,120.417a21.707,21.707,0,1,0-13.272-4.559l-28.157,21.629a1.417,1.417,0,0,1-1.725,0L57.7,96.6a4.255,4.255,0,0,1,4.2-3.589h64.959a1.416,1.416,0,1,0,0-2.832H61.893a7.088,7.088,0,0,0-7.08,7.08V159.96a7.088,7.088,0,0,0,7.08,7.08h99.8a7.088,7.088,0,0,0,7.08-7.08V122.537a1.416,1.416,0,1,0-2.832,0v34.55l-37.075-28.479,14.427-11.082a21.529,21.529,0,0,0,10.793,2.891Zm-59.364,8.191L57.645,157.087V100.128Zm71.162,32.008a4.251,4.251,0,0,1-4.192,3.593h-99.8a4.251,4.251,0,0,1-4.192-3.593l39.343-30.222,12.159,9.34a4.253,4.253,0,0,0,5.176,0l12.159-9.341ZM135.245,98.746a18.838,18.838,0,1,1,18.838,18.838A18.86,18.86,0,0,1,135.245,98.746Z" transform="translate(-54.813 -77.076)" fill="#2626bc"/>
        </g>
        <path id="Path_1028" data-name="Path 1028" d="M373.826,124.226l2.89,6.907-2.89,6.907a1.416,1.416,0,0,0,1.862,1.849l17.451-7.454a1.416,1.416,0,0,0,0-2.6l-17.451-7.454A1.416,1.416,0,0,0,373.826,124.226Z" transform="translate(-283.396 -109.463)" fill="#fff"/>
        <path id="Path_1029" data-name="Path 1029" d="M385.571,142.155l-8.7,3.719,2.108-5.041-2.11-5.041,8.7,3.719A1.481,1.481,0,0,1,385.571,142.155Z" transform="translate(-285.658 -119.162)" fill="#ffdbed"/>
      </g>
      <path id="Path_1030" data-name="Path 1030" d="M320.439,60.894a4.1,4.1,0,1,1,2.9-1.2A4.093,4.093,0,0,1,320.439,60.894Zm0-5.378a1.274,1.274,0,1,0,.9.373A1.271,1.271,0,0,0,320.439,55.516Z" transform="translate(-242.269 -52.685)" fill="#00eca2"/>
      <path id="Path_1031" data-name="Path 1031" d="M208.149,438.538a4.1,4.1,0,1,1,2.9-1.2,4.094,4.094,0,0,1-2.9,1.2Zm0-5.378a1.274,1.274,0,1,0,.9.373A1.271,1.271,0,0,0,208.149,433.16Z" transform="translate(-161.781 -323.376)" fill="#00eca2"/>
      <path id="Path_1032" data-name="Path 1032" d="M277.577,80.57a1.411,1.411,0,0,1-1-.415l-1.689-1.689L273.2,80.156a1.416,1.416,0,0,1-2-2l2.69-2.69a1.416,1.416,0,0,1,2,0l2.69,2.69a1.416,1.416,0,0,1-1,2.417Z" transform="translate(-209.616 -68.715)" fill="#ff7eb8"/>
      <path id="Path_1033" data-name="Path 1033" d="M422.543,426.345a1.411,1.411,0,0,1-1-.415l-1.689-1.689-1.689,1.689a1.416,1.416,0,1,1-2-2l2.69-2.691a1.416,1.416,0,0,1,2,0l2.691,2.691a1.416,1.416,0,0,1-1,2.417Z" transform="translate(-313.526 -316.562)" fill="#ff7eb8"/>
      <path id="Path_1034" data-name="Path 1034" d="M161.681,431.1a1.411,1.411,0,0,1-1-.415l-1.689-1.689-1.689,1.689a1.416,1.416,0,0,1-2-2l2.691-2.69a1.416,1.416,0,0,1,2,0l2.691,2.69a1.416,1.416,0,0,1-1,2.417Z" transform="translate(-126.543 -319.967)" fill="#6583fe"/>
    </g>
  </g>
</svg>
