<svg xmlns="http://www.w3.org/2000/svg" width="112.2" height="112.2" viewBox="0 0 112.2 112.2">
  <path id="github" d="M56.1.5C25.1.5,0,26.257,0,58.024,0,83.444,16.073,105,38.358,112.6c2.805.541,3.833-1.239,3.833-2.766,0-1.366-.047-4.986-.07-9.781-15.605,3.468-18.9-7.717-18.9-7.717-2.553-6.639-6.241-8.415-6.241-8.415-5.082-3.566.393-3.493.393-3.493,5.633.4,8.593,5.927,8.593,5.927,5,8.8,13.132,6.254,16.339,4.786.5-3.722,1.949-6.254,3.553-7.693C33.4,82.01,20.308,77.063,20.308,55.024a22.5,22.5,0,0,1,5.774-15.435c-.631-1.454-2.524-7.3.491-15.225,0,0,4.7-1.542,15.427,5.9a51.627,51.627,0,0,1,28.05,0c10.659-7.439,15.357-5.9,15.357-5.9,3.015,7.922,1.122,13.771.561,15.225a22.6,22.6,0,0,1,5.75,15.435c0,22.1-13.113,26.962-25.6,28.376,1.964,1.727,3.787,5.254,3.787,10.644,0,7.7-.07,13.883-.07,15.752,0,1.507.982,3.307,3.857,2.732,22.445-7.551,38.5-29.123,38.5-54.5C112.2,26.257,87.081.5,56.1.5Z" transform="translate(0 -0.5)"/>
</svg>
