<svg xmlns="http://www.w3.org/2000/svg" width="112.196" height="112.196" viewBox="0 0 112.196 112.196">
  <g id="linkedin" transform="translate(0 0.001)">
    <circle id="Ellipse_121" data-name="Ellipse 121" cx="56.098" cy="56.098" r="56.098" transform="translate(0 -0.001)" fill="#007ab9"/>
    <g id="Group_492" data-name="Group 492">
      <path id="Path_1015" data-name="Path 1015" d="M89.616,60.611V83.739H76.207V62.161c0-5.418-1.936-9.118-6.791-9.118a7.335,7.335,0,0,0-6.878,4.9,9.178,9.178,0,0,0-.444,3.268V83.738H48.684s.18-36.546,0-40.329H62.095v5.715c-.027.045-.065.089-.089.132h.089v-.132A13.314,13.314,0,0,1,74.18,42.462c8.822,0,15.436,5.764,15.436,18.149ZM34.656,23.969c-4.587,0-7.588,3.011-7.588,6.967,0,3.872,2.914,6.97,7.412,6.97h.087c4.677,0,7.585-3.1,7.585-6.97-.089-3.956-2.908-6.967-7.5-6.967Zm-6.791,59.77H41.27V43.409H27.865Z" fill="#f1f2f2"/>
    </g>
  </g>
</svg>
