<svg id="s" xmlns="http://www.w3.org/2000/svg" width="52.598" height="63.158" viewBox="0 0 52.598 63.158">
  <g id="Group_506" data-name="Group 506" transform="translate(8.354 0.925)">
    <path id="Path_1035" data-name="Path 1035" d="M213.539,172.932c-3.452-5.966-9.776-7.877-14.392-9.273a43.271,43.271,0,0,1-4.214-1.438,2.745,2.745,0,0,1-1.629-3.032h-6.2v13.025l11.735,7.826c2.841,1.238,1.823,5.58-1.341,6.084l-7.437,7.065,6.826,8.6a19.233,19.233,0,0,0,16.651-28.853Z" transform="translate(-177.658 -140.478)" fill="#9ea2e3"/>
    <path id="Path_1036" data-name="Path 1036" d="M241.656,43a3.609,3.609,0,0,1,3.739,1.767,7.806,7.806,0,0,0,13.513-7.82,19.238,19.238,0,0,0-6.694-6.815H238.858v15.19a3.559,3.559,0,0,1,2.8-2.322Z" transform="translate(-223.027 -27.34)" fill="#9ea2e3"/>
    <g id="Group_505" data-name="Group 505">
      <path id="Path_1037" data-name="Path 1037" d="M126.171,26.212a3.583,3.583,0,0,1,.184-.73,22.9,22.9,0,0,1,13.356-15.19A19.225,19.225,0,0,0,113.1,36.351c3.452,5.967,9.776,7.879,14.393,9.275a43.4,43.4,0,0,1,4.211,1.436,22.884,22.884,0,0,1-5.535-20.85Z" transform="translate(-110.524 -7.5)" fill="#8288cb"/>
      <path id="Path_1038" data-name="Path 1038" d="M141.225,337.294a3.609,3.609,0,0,1-3.748-1.765,7.806,7.806,0,1,0-13.513,7.819,19.3,19.3,0,0,0,16.651,9.607C137.6,348.187,138.212,342.063,141.225,337.294Z" transform="translate(-121.384 -291.648)" fill="#8288cb"/>
    </g>
  </g>
  <path id="Path_1039" data-name="Path 1039" d="M63.221,61.517l-2.392-.35-1.07-2.18a2.256,2.256,0,0,0-4.055,0l-1.07,2.18-2.392.35A2.278,2.278,0,0,0,50.987,65.4l1.731,1.7-.409,2.4a2.264,2.264,0,0,0,3.281,2.4l2.14-1.131,2.14,1.131a2.264,2.264,0,0,0,3.281-2.4l-.409-2.4,1.731-1.7A2.277,2.277,0,0,0,63.221,61.517Z" transform="translate(-49.377 -50.6)" fill="#ffce71"/>
  <path id="Path_1040" data-name="Path 1040" d="M384.152,388.227a7.194,7.194,0,0,0-1.963-.832,7.2,7.2,0,0,0-.832-1.963,1.137,1.137,0,0,0-1.947,0,7.2,7.2,0,0,0-.832,1.963,7.2,7.2,0,0,0-1.963.832,1.137,1.137,0,0,0,0,1.947,7.2,7.2,0,0,0,1.963.833,7.186,7.186,0,0,0,.831,1.961,1.137,1.137,0,0,0,1.947,0,7.193,7.193,0,0,0,.831-1.961,7.2,7.2,0,0,0,1.963-.833A1.137,1.137,0,0,0,384.152,388.227Z" transform="translate(-334.956 -337.406)" fill="#fce3a0"/>
  <g id="Group_507" data-name="Group 507">
    <path id="Path_1041" data-name="Path 1041" d="M54.536,52.162A6.881,6.881,0,1,1,66.448,45.27a4.528,4.528,0,0,0,4.695,2.215c4.044-.644,5.276-6.229,1.565-7.846A43.68,43.68,0,0,0,68.4,38.165c-4.47-1.351-10.591-3.2-13.86-8.852a18.3,18.3,0,0,1-2.383-7.585l.712.377a3.187,3.187,0,0,0,4.625-3.371l-.327-1.919,1.386-1.358A3.2,3.2,0,0,0,56.78,10h0l-1.47-.215A18.266,18.266,0,0,1,79.9,4.529a.925.925,0,1,0,.962-1.581A20.122,20.122,0,0,0,54.142,8.24l-.128-.261a3.182,3.182,0,0,0-5.717,0l-.855,1.743L45.532,10a3.2,3.2,0,0,0-1.767,5.455l1.385,1.358-.327,1.919A3.187,3.187,0,0,0,49.449,22.1l.841-.444a20.15,20.15,0,0,0,2.644,8.58c3.635,6.284,10.161,8.256,14.927,9.7a43.152,43.152,0,0,1,4.109,1.4c1.981.863,1.139,3.963-1.117,4.322a2.689,2.689,0,0,1-2.8-1.315,8.731,8.731,0,1,0-15.115,8.746,20.071,20.071,0,0,0,3.874,4.8.925.925,0,0,0,1.245-1.369A18.218,18.218,0,0,1,54.536,52.162ZM48.584,20.469a1.339,1.339,0,0,1-1.937-1.424l.409-2.4a.925.925,0,0,0-.264-.816l-1.731-1.7a1.352,1.352,0,0,1,.739-2.3l2.393-.35a.925.925,0,0,0,.7-.508l1.07-2.18a1.33,1.33,0,0,1,2.394,0l1.07,2.18a.926.926,0,0,0,.7.508l2.392.35h0a1.352,1.352,0,0,1,.739,2.3l-1.731,1.7a.925.925,0,0,0-.264.816l.409,2.4a1.339,1.339,0,0,1-1.937,1.424l-2.149-1.136a.929.929,0,0,0-.866.01Z" transform="translate(-42.802)"/>
    <path id="Path_1042" data-name="Path 1042" d="M205.209,245.643v1.48a.925.925,0,1,0,1.85,0v-1.48a.925.925,0,0,0-1.85,0Z" transform="translate(-185.175 -214.531)"/>
    <path id="Path_1043" data-name="Path 1043" d="M249.4,258.177a.925.925,0,1,0-1.4-1.216,1.9,1.9,0,0,1-2.872,0,.925.925,0,1,0-1.4,1.216A3.754,3.754,0,0,0,249.4,258.177Z" transform="translate(-218.751 -224.986)"/>
    <path id="Path_1044" data-name="Path 1044" d="M306.66,245.118a.79.79,0,0,1,1.58,0,.925.925,0,1,0,1.85,0,2.641,2.641,0,0,0-5.281,0,.925.925,0,1,0,1.85,0Z" transform="translate(-272.49 -212.566)"/>
    <path id="Path_1045" data-name="Path 1045" d="M210.9,85.749a8.118,8.118,0,0,0-1.7-.788,8.131,8.131,0,0,0-.765-1.661,20.175,20.175,0,0,0-2.177-14.667c-3.635-6.282-10.16-8.255-14.925-9.7a42.918,42.918,0,0,1-4.111-1.4,1.782,1.782,0,0,1-1.107-1.714,2.694,2.694,0,0,1,5.029-1.292,8.731,8.731,0,0,0,15.114-8.746,20.054,20.054,0,0,0-3.877-4.8.925.925,0,1,0-1.244,1.369,18.207,18.207,0,0,1,3.52,4.359A6.881,6.881,0,1,1,192.739,53.6a4.544,4.544,0,0,0-8.481,2.219,3.619,3.619,0,0,0,2.217,3.41,43.517,43.517,0,0,0,4.317,1.475c4.469,1.351,10.589,3.2,13.858,8.851a18.318,18.318,0,0,1,2.107,12.713,2.053,2.053,0,0,0-1.876.988,8.131,8.131,0,0,0-.788,1.7,8.123,8.123,0,0,0-1.7.788,2.062,2.062,0,0,0,0,3.525,8.165,8.165,0,0,0,.98.509,18.269,18.269,0,0,1-24.088,4.563.925.925,0,1,0-.962,1.581,20.117,20.117,0,0,0,26.265-4.692c.092.179.188.356.294.528a2.062,2.062,0,0,0,3.525,0,8.129,8.129,0,0,0,.787-1.7,8.131,8.131,0,0,0,1.7-.789,2.062,2.062,0,0,0,0-3.525Zm-.966,1.947a6.274,6.274,0,0,1-1.711.726.925.925,0,0,0-.665.665,6.269,6.269,0,0,1-.724,1.709.211.211,0,0,1-.369,0,6.263,6.263,0,0,1-.724-1.709.93.93,0,0,0-.665-.665,6.268,6.268,0,0,1-1.711-.726.211.211,0,0,1,0-.369,6.261,6.261,0,0,1,1.71-.725.925.925,0,0,0,.665-.665,6.274,6.274,0,0,1,.725-1.711.211.211,0,0,1,.369,0,6.267,6.267,0,0,1,.725,1.711.925.925,0,0,0,.666.665,6.261,6.261,0,0,1,1.71.725h0A.211.211,0,0,1,209.929,87.7Z" transform="translate(-161.217 -35.717)"/>
    <path id="Path_1046" data-name="Path 1046" d="M449.863,197.859h-.74a.925.925,0,0,0,0,1.85h.74a.925.925,0,0,0,0-1.85Z" transform="translate(-398.19 -173.452)"/>
    <path id="Path_1047" data-name="Path 1047" d="M414.2,198.784a.925.925,0,0,0,.925.925h.74a.925.925,0,0,0,0-1.85h-.74A.925.925,0,0,0,414.2,198.784Z" transform="translate(-368.384 -173.452)"/>
    <path id="Path_1048" data-name="Path 1048" d="M434.2,212.784v.74a.925.925,0,1,0,1.85,0v-.74a.925.925,0,1,0-1.85,0Z" transform="translate(-385.917 -185.725)"/>
    <path id="Path_1049" data-name="Path 1049" d="M435.123,180.449a.925.925,0,0,0,.925-.925v-.74a.925.925,0,1,0-1.85,0v.74A.925.925,0,0,0,435.123,180.449Z" transform="translate(-385.917 -155.919)"/>
    <path id="Path_1050" data-name="Path 1050" d="M109.863,299.709a.925.925,0,1,0,0-1.85h-.74a.925.925,0,1,0,0,1.85Z" transform="translate(-100.131 -261.116)"/>
    <path id="Path_1051" data-name="Path 1051" d="M75.863,297.859h-.74a.925.925,0,1,0,0,1.85h.74a.925.925,0,1,0,0-1.85Z" transform="translate(-70.325 -261.116)"/>
    <path id="Path_1052" data-name="Path 1052" d="M95.123,311.859a.925.925,0,0,0-.925.925v.74a.925.925,0,1,0,1.85,0v-.74A.925.925,0,0,0,95.123,311.859Z" transform="translate(-87.858 -273.389)"/>
    <path id="Path_1053" data-name="Path 1053" d="M95.123,280.449a.925.925,0,0,0,.925-.925v-.74a.925.925,0,0,0-1.85,0v.74A.925.925,0,0,0,95.123,280.449Z" transform="translate(-87.858 -243.584)"/>
  </g>
</svg>
